<svg width="20" height="20" viewBox="0 0 20 20" fill="none" xmlns="http://www.w3.org/2000/svg">
<g clip-path="url(#clip0_2514_2452)">
<g clip-path="url(#clip1_2514_2452)">
<path d="M3.71458 3.50646C4.33625 4.01146 4.56958 3.97313 5.73792 3.89479L16.7504 3.23396C16.9837 3.23396 16.7896 3.00063 16.7121 2.96229L14.8821 1.63979C14.5321 1.36813 14.0646 1.05646 13.1696 1.13396L2.50708 1.91229C2.11875 1.95063 2.04042 2.14563 2.19542 2.30063L3.71458 3.50646ZM4.37542 6.07313V17.6598C4.37542 18.2823 4.68625 18.5156 5.38708 18.4765L17.4896 17.7765C18.1904 17.7381 18.2687 17.3098 18.2687 16.804V5.29479C18.2687 4.78979 18.0746 4.51729 17.6454 4.55563L4.99792 5.29479C4.53125 5.33396 4.37542 5.56729 4.37542 6.07229V6.07313ZM16.3229 6.69396C16.4004 7.04396 16.3229 7.39396 15.9729 7.43396L15.3896 7.55063V16.104C14.8829 16.3765 14.4162 16.5323 14.0271 16.5323C13.4037 16.5323 13.2479 16.3373 12.7812 15.7548L8.96708 9.76646V15.5598L10.1737 15.8331C10.1737 15.8331 10.1737 16.5331 9.20042 16.5331L6.51542 16.6881C6.43792 16.5331 6.51542 16.144 6.78792 16.0665L7.48792 15.8723V8.21146L6.51708 8.13313C6.43875 7.78313 6.63375 7.27813 7.17792 7.23896L10.0579 7.0448L14.0279 13.1106V7.74396L13.0154 7.62813C12.9379 7.19979 13.2487 6.88896 13.6379 6.85063L16.3229 6.69396ZM1.61208 0.862293L12.7037 0.0456266C14.0654 -0.0710401 14.4162 0.00645997 15.2721 0.62896L18.8129 3.11729C19.3962 3.54479 19.5912 3.66146 19.5912 4.12813V17.7765C19.5912 18.6315 19.2804 19.1381 18.1912 19.2148L5.30958 19.9931C4.49292 20.0323 4.10292 19.9156 3.67458 19.3706L1.06708 15.9873C0.600417 15.3648 0.40625 14.899 0.40625 14.354V2.22229C0.40625 1.52313 0.717917 0.93896 1.61208 0.862293V0.862293Z" fill="black" fill-opacity="0.88"/>
</g>
</g>
<defs>
<clipPath id="clip0_2514_2452">
<rect width="20" height="20" fill="white"/>
</clipPath>
<clipPath id="clip1_2514_2452">
<rect width="20" height="20" fill="white"/>
</clipPath>
</defs>
</svg>
